<svg xmlns="http://www.w3.org/2000/svg" width="940" height="800" viewBox="0 0 940 800" role="img" aria-labelledby="title desc">
  <title id="title">Continuous FAQ curation and improvement loop</title>
  <desc id="desc">Students contribute FAQ issues, useful Slack discussions become reviewed records, the dataset is indexed and deployed, Au-Tomator answers questions, and incomplete answers become evaluation cases that guide the next FAQ improvements.</desc>
  <defs>
    <filter id="shadow" x="-20%" y="-20%" width="140%" height="150%">
      <feDropShadow dx="0" dy="4" stdDeviation="5" flood-color="#0f172a" flood-opacity="0.08"/>
    </filter>
    <marker id="arrow-purple" viewBox="0 0 10 10" refX="9" refY="5" markerWidth="7" markerHeight="7" orient="auto"><path d="M0 0 10 5 0 10Z" fill="#7c3aed"/></marker>
    <marker id="arrow-blue" viewBox="0 0 10 10" refX="9" refY="5" markerWidth="7" markerHeight="7" orient="auto"><path d="M0 0 10 5 0 10Z" fill="#2563eb"/></marker>
    <marker id="arrow-amber" viewBox="0 0 10 10" refX="9" refY="5" markerWidth="7" markerHeight="7" orient="auto"><path d="M0 0 10 5 0 10Z" fill="#c2410c"/></marker>
    <marker id="arrow-green" viewBox="0 0 10 10" refX="9" refY="5" markerWidth="7" markerHeight="7" orient="auto"><path d="M0 0 10 5 0 10Z" fill="#15803d"/></marker>
    <marker id="arrow-red" viewBox="0 0 10 10" refX="9" refY="5" markerWidth="7" markerHeight="7" orient="auto"><path d="M0 0 10 5 0 10Z" fill="#dc2626"/></marker>
    <marker id="arrow-gray" viewBox="0 0 10 10" refX="9" refY="5" markerWidth="7" markerHeight="7" orient="auto"><path d="M0 0 10 5 0 10Z" fill="#64748b"/></marker>
    <symbol id="icon-database" viewBox="0 0 24 24">
        <ellipse cx="12" cy="5" rx="8" ry="3" fill="none" stroke="currentColor" stroke-width="1.75" vector-effect="non-scaling-stroke"/>
        <path d="M4 5v7c0 1.66 3.58 3 8 3s8-1.34 8-3V5M4 12v7c0 1.66 3.58 3 8 3s8-1.34 8-3v-7" fill="none" stroke="currentColor" stroke-width="1.75" vector-effect="non-scaling-stroke"/>
      </symbol>
    <symbol id="icon-issue" viewBox="0 0 24 24">
        <circle cx="12" cy="12" r="9" fill="none" stroke="currentColor" stroke-width="2"/>
        <path d="M12 7v6" stroke="currentColor" stroke-width="2" stroke-linecap="round"/><circle cx="12" cy="17" r="1.2" fill="currentColor"/>
      </symbol>
    <symbol id="icon-message" viewBox="0 0 24 24">
        <path d="M4 4h16v12H9l-5 4Z" fill="none" stroke="currentColor" stroke-width="2" stroke-linecap="round" stroke-linejoin="round"/>
        <path d="M8 9h8M8 13h5" fill="none" stroke="currentColor" stroke-width="2" stroke-linecap="round"/>
      </symbol>
    <symbol id="icon-warning" viewBox="0 0 24 24">
        <path d="M12 3 2.5 21h19Z" fill="none" stroke="currentColor" stroke-width="2" stroke-linejoin="round"/><path d="M12 9v5" stroke="currentColor" stroke-width="2" stroke-linecap="round"/><circle cx="12" cy="17.5" r="1.1" fill="currentColor"/>
      </symbol>
    <style>
      text { font-family: system-ui, -apple-system, BlinkMacSystemFont, "Segoe UI", sans-serif; fill: #172033; }
      .node rect { stroke-width: 2; }
      .node-title { font-size: 16px; font-weight: 750; text-anchor: middle; }
      .node-title.icon-copy { text-anchor: start; }
      .node-subtitle { font-size: 14px; font-weight: 500; fill: #64748b; text-anchor: middle; }
      .node-subtitle.icon-copy { text-anchor: start; }
      .eyebrow { font-size: 12px; font-weight: 750; letter-spacing: 1px; fill: #64748b; text-anchor: middle; }
      .mention-icon { font-size: 27px; font-weight: 750; text-anchor: middle; }
      .standalone-mention { font-size: 52px; font-weight: 750; text-anchor: middle; }
      .icon-node-title { font-size: 16px; font-weight: 750; text-anchor: middle; }
      .edge { fill: none; stroke-width: 2.5; stroke-linecap: round; stroke-linejoin: round; }
      .edge-label rect { stroke-width: 2; }
      .edge-label text { font-size: 14px; font-weight: 750; text-anchor: middle; dominant-baseline: central; }
      .divider { stroke: #cbd5e1; stroke-width: 2; stroke-dasharray: 6 8; stroke-linecap: round; }
      .center-annotation { fill: #f8fafc; stroke: #cbd5e1; stroke-width: 2; stroke-dasharray: 7 7; }
      .center-title { font-size: 16px; font-weight: 800; letter-spacing: 1.3px; fill: #334155; text-anchor: middle; }
      .center-detail { font-size: 13px; font-weight: 600; fill: #64748b; text-anchor: middle; }
    </style>
  </defs>
  <rect width="940" height="800" fill="#ffffff"/>

  <path class="edge" d="M613.21 149.06A315.44 315.44 0 0 1 741.51 269.55" stroke="#64748b" marker-end="url(#arrow-gray)"/>
  <path class="edge" d="M783.53 395.51A315.44 315.44 0 0 1 720.25 622.15" stroke="#64748b" marker-end="url(#arrow-gray)"/>
  <path class="edge" d="M525.41 685.32L414.59 685.32" stroke="#64748b" marker-end="url(#arrow-gray)"/>
  <path class="edge" d="M219.75 622.15A315.44 315.44 0 0 1 156.47 395.51" stroke="#64748b" marker-end="url(#arrow-gray)"/>
  <path class="edge" d="M198.49 269.55A315.44 315.44 0 0 1 326.79 149.06" stroke="#64748b" marker-end="url(#arrow-gray)"/>

  <circle class="center-annotation" cx="470" cy="430.12" r="68"/>
  <text class="center-title" x="470" y="425.12">CURATION</text>
  <text class="center-title" x="470" y="448.12">LOOP</text>
  <text class="center-detail" x="470" y="522.12">Each failure improves the data</text>

  <g class="node node-blue" transform="translate(340 64.68)" filter="url(#shadow)">
    <rect width="260" height="100" rx="18" fill="#eff6ff" stroke="#2563eb"/>
    <use href="#icon-issue" x="16" y="26" width="28" height="28" color="#2563eb"/>
    <text class="node-title icon-copy" x="56" y="46" textLength="188" lengthAdjust="spacingAndGlyphs">Student contributions</text>
    <text class="node-subtitle icon-copy" x="16" y="71">Issues improve the FAQ dataset</text>
  </g>
  <g class="node node-purple" transform="translate(640 282.65)" filter="url(#shadow)">
    <rect width="260" height="100" rx="18" fill="#f5f3ff" stroke="#7c3aed"/>
    <use href="#icon-message" x="16" y="26" width="28" height="28" color="#7c3aed"/>
    <text class="node-title icon-copy" x="56" y="46">Curate discussions</text>
    <text class="node-subtitle icon-copy" x="16" y="71">Slack → reviewed FAQ records</text>
  </g>
  <g class="node node-green" transform="translate(525.41 635.32)" filter="url(#shadow)">
    <rect width="260" height="100" rx="18" fill="#ecfdf5" stroke="#15803d"/>
    <use href="#icon-database" x="16" y="26" width="28" height="28" color="#15803d"/>
    <text class="node-title icon-copy" x="56" y="46">Index + deploy</text>
    <text class="node-subtitle icon-copy" x="16" y="71">Fresh dataset ships with Lambda</text>
  </g>
  <g class="node node-purple" transform="translate(154.59 635.32)" filter="url(#shadow)">
    <rect width="260" height="100" rx="18" fill="#f5f3ff" stroke="#7c3aed"/>
    <text class="mention-icon" x="30" y="49" fill="#7c3aed">@</text>
    <text class="node-title icon-copy" x="56" y="46">Answer questions</text>
    <text class="node-subtitle icon-copy" x="16" y="71">Au-Tomator responds in Slack</text>
  </g>
  <g class="node node-red" transform="translate(40 282.65)" filter="url(#shadow)">
    <rect width="260" height="100" rx="18" fill="#fef2f2" stroke="#dc2626"/>
    <use href="#icon-warning" x="16" y="26" width="28" height="28" color="#dc2626"/>
    <text class="node-title icon-copy" x="56" y="46">Evaluate failures</text>
    <text class="node-subtitle icon-copy" x="16" y="71" textLength="228" lengthAdjust="spacingAndGlyphs">Missing answers reveal next fixes</text>
  </g>
</svg>
